<svg width="79" height="79" viewBox="0 0 79 79" fill="none" xmlns="http://www.w3.org/2000/svg">
<path d="M33.3899 21.8157C35.9791 15.3608 37.2737 12.1333 39.5 12.1333C41.7262 12.1333 43.0208 15.3608 45.6101 21.8157L45.7306 22.1163C47.1934 25.763 47.9248 27.5864 49.4155 28.6947C50.9061 29.8029 52.8628 29.9782 56.7764 30.3287L57.4839 30.392C63.8888 30.9657 67.0913 31.2525 67.7766 33.29C68.4618 35.3274 66.0835 37.4912 61.3269 41.8187L59.7394 43.263C57.3315 45.4537 56.1276 46.549 55.5665 47.9846C55.4618 48.2524 55.3748 48.5267 55.306 48.8059C54.9371 50.3025 55.2897 51.8915 55.9948 55.0695L56.2142 56.0587C57.5101 61.8992 58.158 64.8195 57.0267 66.0791C56.604 66.5498 56.0546 66.8887 55.4443 67.0552C53.8109 67.5009 51.492 65.6113 46.8542 61.8322C43.8089 59.3507 42.2862 58.1099 40.538 57.8308C39.8503 57.721 39.1496 57.721 38.462 57.8308C36.7137 58.1099 35.1911 59.3507 32.1457 61.8322C27.5079 65.6113 25.189 67.5009 23.5557 67.0552C22.9453 66.8887 22.3959 66.5498 21.9732 66.0791C20.8419 64.8195 21.4898 61.8992 22.7857 56.0587L23.0052 55.0695C23.7103 51.8915 24.0628 50.3025 23.694 48.8059C23.6252 48.5267 23.5381 48.2524 23.4335 47.9846C22.8723 46.549 21.6684 45.4537 19.2605 43.263L17.673 41.8187C12.9164 37.4912 10.5381 35.3274 11.2234 33.29C11.9086 31.2525 15.1111 30.9657 21.5161 30.392L22.2236 30.3287C26.1371 29.9782 28.0938 29.8029 29.5845 28.6947C31.0751 27.5864 31.8065 25.763 33.2693 22.1163L33.3899 21.8157Z" stroke="white" stroke-width="6.58333"/>
</svg>
