<svg width="79" height="79" viewBox="0 0 79 79" fill="none" xmlns="http://www.w3.org/2000/svg">
<path d="M49.6879 17.8301C51.2286 17.9127 52.4395 18.5956 53.3881 19.3193C54.3238 20.0333 55.3265 21.0459 56.3578 22.0771L56.9222 22.6426C57.9537 23.674 58.967 24.6764 59.681 25.6123C60.453 26.6241 61.1781 27.9343 61.1781 29.625C61.1781 31.3157 60.453 32.6259 59.681 33.6377C58.967 34.5736 57.9537 35.576 56.9222 36.6074L56.7572 36.7734L56.7533 36.7754L33.2416 60.2881C32.7244 60.8052 32.0539 61.5154 31.1859 62.0068C30.318 62.4983 29.3642 62.7084 28.6547 62.8857L19.9183 65.0693C19.4315 65.191 18.7016 65.3827 18.0619 65.4453C17.3815 65.5119 15.8939 65.534 14.6801 64.3203C13.4663 63.1066 13.4885 61.619 13.5551 60.9385C13.6176 60.2988 13.8083 59.5689 13.9301 59.082L16.1146 50.3457C16.292 49.6362 16.5021 48.6825 16.9935 47.8145L17.1869 47.498C17.6591 46.7809 18.2597 46.2104 18.7123 45.7578L42.392 22.0771C43.4234 21.0457 44.4268 20.0334 45.3627 19.3193C46.3745 18.5474 47.6847 17.8223 49.3754 17.8223L49.6879 17.8301Z" stroke="white" stroke-width="6.58333"/>
<path d="M41.1458 24.6876L51.0208 18.1042L60.8958 27.9792L54.3124 37.8542L41.1458 24.6876Z" fill="white"/>
</svg>
