<svg width="79" height="79" viewBox="0 0 79 79" fill="none" xmlns="http://www.w3.org/2000/svg">
<path d="M33.3899 21.8172C35.9792 15.3622 37.2738 12.1348 39.5 12.1348C41.7263 12.1348 43.0209 15.3622 45.6101 21.8172L45.7307 22.1178C47.1935 25.7645 47.9249 27.5879 49.4155 28.6961C50.9061 29.8044 52.8629 29.9797 56.7764 30.3301L57.4839 30.3935C63.8889 30.9671 67.0914 31.2539 67.7766 33.2914C68.4619 35.3289 66.0836 37.4927 61.327 41.8202L59.7395 43.2645C57.3316 45.4551 56.1277 46.5505 55.5665 47.9861C55.4618 48.2539 55.3748 48.5282 55.306 48.8074C54.9372 50.304 55.2897 51.893 55.9948 55.071L56.2143 56.0602C57.5101 61.9007 58.1581 64.821 57.0268 66.0806C56.6041 66.5513 56.0546 66.8901 55.4443 67.0567C53.811 67.5024 51.4921 65.6128 46.8543 61.8336C43.8089 59.3521 42.2862 58.1114 40.538 57.8322C39.8504 57.7224 39.1497 57.7224 38.462 57.8322C36.7138 58.1114 35.1911 59.3521 32.1458 61.8336C27.508 65.6128 25.1891 67.5024 23.5557 67.0567C22.9454 66.8901 22.396 66.5513 21.9733 66.0806C20.842 64.821 21.4899 61.9007 22.7857 56.0602L23.0052 55.071C23.7103 51.893 24.0629 50.304 23.694 48.8074C23.6252 48.5282 23.5382 48.2539 23.4335 47.9861C22.8724 46.5505 21.6685 45.4551 19.2606 43.2645L17.6731 41.8202C12.9165 37.4927 10.5382 35.3289 11.2234 33.2914C11.9087 31.2539 15.1112 30.9671 21.5161 30.3935L22.2236 30.3301C26.1371 29.9797 28.0939 29.8044 29.5845 28.6961C31.0752 27.5879 31.8066 25.7645 33.2694 22.1178L33.3899 21.8172Z" stroke="url(#paint0_linear_4_832)" stroke-width="6.58333"/>
<defs>
<linearGradient id="paint0_linear_4_832" x1="39.5" y1="12.1348" x2="39.5" y2="82.0035" gradientUnits="userSpaceOnUse">
<stop stop-color="#FF9595"/>
<stop offset="1" stop-color="#C17AFF"/>
</linearGradient>
</defs>
</svg>
