<svg width="79" height="79" viewBox="0 0 79 79" fill="none" xmlns="http://www.w3.org/2000/svg">
<path d="M65.8333 39.5V55.9583C65.8333 62.1652 65.8333 65.2686 63.9051 67.1968C61.9769 69.125 58.8735 69.125 52.6666 69.125H21.3958C16.851 69.125 13.1666 65.4407 13.1666 60.8958V60.8958C13.1666 56.351 16.8509 52.6667 21.3958 52.6667H52.6666C58.8735 52.6667 61.9769 52.6667 63.9051 50.7385C65.8333 48.8102 65.8333 45.7068 65.8333 39.5V23.0417C65.8333 16.8348 65.8333 13.7314 63.9051 11.8032C61.9769 9.875 58.8735 9.875 52.6666 9.875H26.3333C20.1265 9.875 17.0231 9.875 15.0948 11.8032C13.1666 13.7314 13.1666 16.8348 13.1666 23.0417V60.8958" stroke="white" stroke-width="6.58333"/>
<path d="M29.625 26.3333L49.375 26.3333" stroke="white" stroke-width="6.58333" stroke-linecap="round"/>
</svg>
