<svg width="162" height="160" viewBox="0 0 162 160" fill="none" xmlns="http://www.w3.org/2000/svg">
<path d="M40.2999 44.1301C38.1311 42.4254 35.909 41.2356 34.5224 39.442C31.3758 35.411 33.438 30.0658 38.5222 28.805C41.6154 28.0414 44.8509 27.5087 48.0508 27.3666C59.8192 26.8161 71.5877 26.1591 83.3562 26.1058C93.0803 26.0703 102.787 26.7628 112.511 27.2423C116.119 27.4199 119.71 27.8461 123.301 28.29C128.226 28.8938 131.23 32.5164 130.11 36.6895C129.363 39.4953 127.319 41.4131 124.368 42.159C122.644 42.6029 122.253 43.4198 122.341 45.1068C123.106 59.8281 117.293 71.8325 105.684 81.2797C102.591 83.8014 99.1067 85.9145 95.818 88.2053C95.4446 88.4717 95.0535 88.6848 94.698 88.9689C91.6403 91.3485 91.5337 94.4561 94.6091 96.7824C97.2401 98.7713 100.049 100.547 102.84 102.341C112.742 108.698 118.946 117.488 121.186 128.693C121.933 132.44 122.004 136.347 122.217 140.183C122.288 141.373 122.555 141.905 123.799 142.332C126.946 143.433 129.168 145.528 129.683 148.849C130.128 151.725 128.777 153.963 126.306 155.419C124.706 156.36 122.875 157.248 121.061 157.497C114.04 158.456 106.982 159.646 99.9245 159.823C87.036 160.143 74.1298 160.001 61.2414 159.628C54.9661 159.45 48.7263 158.349 42.4865 157.532C41.1532 157.355 39.8733 156.715 38.6289 156.165C35.5357 154.815 33.7046 152.525 33.7757 149.204C33.8468 145.794 35.6957 143.308 38.9133 141.941C40.211 141.373 40.5844 140.733 40.6021 139.401C40.7088 123.135 47.6775 110.403 61.9347 101.471C64.1391 100.085 66.4323 98.8423 68.5656 97.3684C72.4943 94.6515 72.5299 91.3307 68.6367 88.5782C65.4013 86.2875 61.9881 84.2453 58.7704 81.9545C50.6285 76.1477 45.1175 68.494 42.0954 59.2599C40.371 54.2521 39.5533 49.0491 40.2999 44.1301ZM48.4596 141.781C49.864 138.975 50.8773 136.347 52.3884 134.003C54.9661 130.025 59.1793 127.734 63.2147 125.355C68.2634 122.389 73.3476 119.495 78.4675 116.618C79.6763 115.943 79.8719 115.055 79.9074 113.812C80.0141 110.349 80.2274 106.869 80.5829 103.406C80.6718 102.536 81.4896 101.755 81.9696 100.92C82.414 101.826 83.1962 102.696 83.2495 103.619C83.4628 107.277 83.534 110.953 83.4806 114.611C83.4628 115.677 83.8184 116.156 84.725 116.654C89.8982 119.548 95.018 122.531 100.191 125.408C104.813 127.965 109.115 130.86 111.835 135.388C113.151 137.59 114.057 140.041 115.213 142.509C116.191 142.349 117.346 142.172 118.999 141.905C118.573 137.643 118.377 133.417 117.702 129.262C116.279 120.596 111.817 113.493 104.724 108.041C100.724 104.969 96.3157 102.412 92.1736 99.4994C88.4938 96.9245 87.7471 93.4617 89.596 89.4661C90.8226 86.8202 93.2758 85.5594 95.6224 84.2098C106.413 77.959 114.324 69.5595 117.453 57.5374C118.679 52.8137 119.266 48.0369 118.644 43.2422C93.578 43.4553 68.69 43.6862 43.5887 43.8993V48.3565C43.5887 48.6761 43.642 48.978 43.6598 49.2977C44.4953 60.3076 49.2241 69.5417 57.8815 76.7159C61.8458 80.0012 66.4146 82.5938 70.6633 85.5771C76.672 89.7858 76.6186 96.0543 70.5566 100.139C68.0678 101.808 65.4901 103.335 62.9658 104.916C54.9305 109.977 49.2418 116.813 46.1486 125.586C44.3887 130.611 43.6243 135.743 44.0865 141.088C45.6686 141.373 47.1441 141.586 48.4596 141.781ZM52.4239 142.172C72.121 145.741 91.6225 145.421 111.284 143.148C110.04 137.608 107.16 133.488 102.644 130.7C95.7646 126.438 88.6715 122.478 81.8096 118.483C75.4809 122.087 69.0456 125.675 62.6991 129.386C57.7393 132.281 53.8461 136.081 52.4239 142.172ZM86.9116 29.1424C74.2543 29.6574 61.5614 30.1369 48.8863 30.7584C45.882 30.9004 42.8954 31.522 39.9266 32.0192C38.1311 32.3211 36.6556 33.2623 36.389 35.1268C36.1223 36.9914 37.42 38.1279 38.86 39.1401C41.011 40.6496 43.4998 40.3654 45.8997 40.3477C64.2635 40.2411 82.6273 40.1346 100.991 39.957C107.764 39.886 114.537 39.7439 121.31 39.4065C122.75 39.3355 124.421 38.6074 125.506 37.6662C127.852 35.6241 127.195 33.1379 124.226 32.1257C122.999 31.6996 121.701 31.3089 120.422 31.2201C109.293 30.4743 98.1468 29.8172 86.9116 29.1424ZM82.6451 156.982C87.356 156.982 87.5694 156.964 89.5071 156.911C98.9289 156.644 107.213 156.378 116.528 154.993C119.088 154.62 121.63 153.803 124.03 152.809C126.235 151.885 126.821 149.417 125.63 147.694C124.19 145.599 121.701 144.782 119.106 145.368C117.062 145.83 114.982 146.221 112.902 146.451C101.578 147.73 90.2182 148.227 78.8052 148.174C66.6279 148.121 54.6994 146.185 42.7354 144.48C40.9577 144.232 38.6467 145.279 37.7045 147.02C36.709 148.849 36.9401 150.749 38.6289 151.974C39.8733 152.862 41.3132 153.732 42.7887 154.016C47.0908 154.851 51.4462 155.721 55.8194 155.987C64.7435 156.538 73.7032 156.68 82.6451 156.982Z" fill="white"/>
<path d="M151.075 120.222C150.31 119.935 149.794 119.792 149.331 119.541C145.38 117.517 141.43 115.493 137.497 113.451C137.106 113.236 136.554 113.003 136.43 112.645C136.234 112.036 136.074 111.194 136.359 110.728C136.626 110.316 137.675 109.958 138.138 110.155C140.007 110.908 141.822 111.839 143.601 112.77C146.27 114.15 148.922 115.547 151.502 117.051C152.018 117.356 152.427 118.305 152.356 118.914C152.338 119.416 151.502 119.828 151.075 120.222Z" fill="white"/>
<path d="M18.0319 44.5722C17.1826 44.3962 16.6872 44.3962 16.2979 44.2201C12.4583 42.4594 8.65412 40.6811 4.83222 38.9027C4.42526 38.7091 3.89444 38.4978 3.7175 38.1632C3.4167 37.547 3.02743 36.649 3.27515 36.1912C3.52286 35.7511 4.72605 35.3637 5.22149 35.575C9.69806 37.4942 14.1039 39.519 18.492 41.6318C18.9697 41.8607 19.4474 42.8115 19.3413 43.2869C19.1997 43.8327 18.4035 44.2201 18.0319 44.5722Z" fill="white"/>
<path d="M9.02482 118.446C8.61514 118.16 7.8136 117.839 7.8136 117.536C7.8136 116.804 7.97391 115.823 8.47265 115.395C10.3785 113.842 12.4269 112.468 14.4397 111.041C16.1853 109.792 17.9487 108.579 19.6765 107.33C20.6383 106.634 21.5467 106.402 22.4551 107.383C23.4526 108.454 22.5976 109.185 21.8495 109.756C18.0912 112.522 14.2972 115.234 10.4854 117.946C10.1114 118.16 9.63043 118.232 9.02482 118.446Z" fill="white"/>
<path d="M129.279 9.13459C128.994 9.77598 128.887 10.2036 128.638 10.5599C126.414 13.6956 124.208 16.8313 121.841 19.8779C121.486 20.3234 120.294 20.555 119.671 20.3412C118.781 20.0383 118.247 19.1831 118.941 18.1854C121.183 14.9962 123.389 11.7714 125.738 8.63573C126.129 8.10123 127.179 7.78053 127.909 7.81617C128.389 7.83398 128.834 8.67136 129.279 9.13459Z" fill="white"/>
<path d="M154.495 36.1496C154.176 36.4855 153.769 37.3165 153.096 37.5994C149.766 39.0316 146.383 40.3931 142.965 41.6308C142.327 41.8606 141.141 41.6838 140.733 41.2418C139.936 40.3577 140.237 39.2792 141.424 38.7841C145.126 37.2281 148.845 35.6722 152.6 34.24C153.875 33.7449 154.424 34.5583 154.495 36.1496Z" fill="white"/>
<path d="M7.66756 81.8229C5.77082 81.8229 3.85636 81.9444 1.95962 81.7709C1.25056 81.7014 0.169248 81.042 0.0451623 80.5039C-0.203009 79.4279 0.594683 78.6123 1.87099 78.5949C5.73537 78.5428 9.61748 78.5428 13.4819 78.4908C14.6518 78.4734 15.4495 78.8726 15.4495 80.0354C15.4495 81.2676 14.6164 81.7361 13.3578 81.7014C11.461 81.6667 9.54657 81.7014 7.64984 81.7014C7.66756 81.7361 7.66756 81.7709 7.66756 81.8229Z" fill="white"/>
<path d="M153.262 76.5907C155.831 76.7673 157.727 76.8556 159.623 77.0322C160.845 77.1382 161.571 77.7209 161.394 79.0101C161.235 80.2463 160.349 80.4759 159.268 80.4405C156.008 80.2993 152.731 80.158 149.471 79.999C148.213 79.9461 147.327 79.2573 147.628 78.1271C147.806 77.4913 148.869 76.785 149.63 76.6613C151.03 76.4318 152.5 76.5907 153.262 76.5907Z" fill="white"/>
<path d="M83.5745 7.84906C83.5745 9.62486 83.7358 11.4007 83.5029 13.141C83.4133 13.8335 82.4635 14.4373 81.908 15.0943C81.3166 14.4551 80.2414 13.8335 80.2235 13.1587C80.0622 9.57159 80.0264 5.94895 80.2235 2.36182C80.2593 1.54495 81.3524 0.781354 81.9797 0C82.5173 0.852386 83.3953 1.6515 83.5208 2.5394C83.7537 4.27969 83.5745 6.07325 83.5745 7.84906Z" fill="white"/>
<path d="M35.2581 10.2998C35.8593 10.5859 36.3367 10.6753 36.6373 10.9613C38.8653 13.1784 41.0932 15.4134 43.2505 17.702C44.0285 18.5423 44.5236 19.5257 43.3035 20.4912C42.1011 21.4388 41.3408 20.7772 40.5097 19.9011C38.5293 17.7913 36.4428 15.771 34.5331 13.6075C34.0557 13.0711 33.8612 12.1235 33.932 11.4083C33.9673 11.015 34.7807 10.6753 35.2581 10.2998Z" fill="white"/>
<path d="M88.0489 58.5402C88.3684 58.5402 88.6347 58.4871 88.8654 58.5402C94.1194 60.1338 99.0538 62.2586 103.012 66.0831C104.024 67.057 105.142 67.4288 106.242 66.2602C107.396 65.0384 106.225 64.3125 105.426 63.6396C98.6101 57.8497 90.6049 54.8042 81.5348 54.698C72.4114 54.5917 64.4595 57.6726 57.7146 63.6042C56.8803 64.3302 55.8863 65.1093 56.8981 66.2779C57.8743 67.4111 58.8683 67.057 59.951 66.2071C61.9745 64.6135 63.927 62.8075 66.2167 61.6743C69.2874 60.1515 72.6599 59.1954 75.8903 57.9913C75.9613 58.1684 76.0146 58.3455 76.0856 58.5225C71.3286 62.0107 70.2637 67.8537 73.6184 71.9085C77.3103 76.3351 83.8067 76.9017 88.5104 73.1656C93.0366 69.589 92.8946 63.9584 88.0489 58.5402ZM81.659 79.9117C88.8299 79.3451 95.7346 77.3443 101.539 72.5105C102.462 71.7314 103.296 71.0586 102.373 69.8723C101.415 68.6328 100.403 69.2525 99.5153 69.9785C95.7168 73.0771 91.3681 74.9894 86.4692 75.8216C77.9316 77.2558 70.1217 75.9278 63.5365 70.1556C62.6135 69.3588 61.726 69.0047 60.8563 70.0139C60.0398 70.9701 60.3593 71.9262 61.2823 72.6699C67.0864 77.362 73.7604 79.7701 81.659 79.9117Z" fill="white"/>
<path d="M88.0364 58.5263C92.8807 63.9499 93.0404 69.5861 88.4977 73.1841C83.7953 76.9061 77.283 76.3567 73.6098 71.9257C70.2383 67.8669 71.3207 62.018 76.0763 58.5263C76.0053 58.3491 75.9521 58.1719 75.8811 57.9946C72.6516 59.1999 69.28 60.157 66.2102 61.6812C63.9211 62.8156 61.9692 64.6234 59.9462 66.2186C58.8638 67.0693 57.8523 67.4238 56.8941 66.2895C55.8827 65.1197 56.8941 64.3398 57.7281 63.6131C64.4712 57.6933 72.4209 54.5916 81.5417 54.698C90.6094 54.8043 98.6123 57.8528 105.426 63.6486C106.225 64.3221 107.396 65.0488 106.243 66.2717C105.142 67.4415 104.024 67.0693 103.013 66.0945C99.0559 62.2661 94.1229 60.1392 88.8704 58.5441C88.6219 58.4732 88.3558 58.5263 88.0364 58.5263Z" fill="white"/>
<path d="M81.6585 79.9115C73.7496 79.7688 67.067 77.3434 61.2731 72.6174C60.3489 71.8684 60.029 70.9053 60.8466 69.9423C61.7174 68.9079 62.6061 69.2646 63.5302 70.085C70.1239 75.9167 77.944 77.2364 86.4926 75.7919C91.3979 74.9715 95.7523 73.0454 99.5556 69.9066C100.444 69.1754 101.457 68.5334 102.417 69.7996C103.341 70.9945 102.506 71.6722 101.582 72.4569C95.7522 77.3434 88.8386 79.3587 81.6585 79.9115Z" fill="white"/>
</svg>
